<svg width="19" height="20" viewBox="0 0 19 20" fill="none" xmlns="http://www.w3.org/2000/svg">
<path d="M16.5 2.00012H12.32C11.9 0.840122 10.8 0.00012207 9.5 0.00012207C8.2 0.00012207 7.1 0.840122 6.68 2.00012H2.5C1.4 2.00012 0.5 2.90012 0.5 4.00012V18.0001C0.5 19.1001 1.4 20.0001 2.5 20.0001H16.5C17.6 20.0001 18.5 19.1001 18.5 18.0001V4.00012C18.5 2.90012 17.6 2.00012 16.5 2.00012ZM9.5 2.00012C10.05 2.00012 10.5 2.45012 10.5 3.00012C10.5 3.55012 10.05 4.00012 9.5 4.00012C8.95 4.00012 8.5 3.55012 8.5 3.00012C8.5 2.45012 8.95 2.00012 9.5 2.00012ZM11.5 16.0001H4.5V14.0001H11.5V16.0001ZM14.5 12.0001H4.5V10.0001H14.5V12.0001ZM14.5 8.00012H4.5V6.00012H14.5V8.00012Z" fill="#C6C4C4"/>
</svg>
