<svg width="17" height="20" viewBox="0 0 17 20" fill="none" xmlns="http://www.w3.org/2000/svg">
<path d="M8.25 20.0001C9.35 20.0001 10.25 19.1001 10.25 18.0001H6.25C6.25 19.1001 7.15 20.0001 8.25 20.0001ZM14.25 14.0001V9.00012C14.25 5.93012 12.62 3.36012 9.75 2.68012V2.00012C9.75 1.17012 9.08 0.500122 8.25 0.500122C7.42 0.500122 6.75 1.17012 6.75 2.00012V2.68012C3.89 3.36012 2.25 5.92012 2.25 9.00012V14.0001L0.25 16.0001V17.0001H16.25V16.0001L14.25 14.0001ZM12.25 15.0001H4.25V9.00012C4.25 6.52012 5.76 4.50012 8.25 4.50012C10.74 4.50012 12.25 6.52012 12.25 9.00012V15.0001Z" fill="#C6C4C4"/>
</svg>
