<svg width="17" height="16" viewBox="0 0 17 16" fill="none" xmlns="http://www.w3.org/2000/svg">
<path d="M8.5 2.00012C9.6 2.00012 10.5 2.90012 10.5 4.00012C10.5 5.10012 9.6 6.00012 8.5 6.00012C7.4 6.00012 6.5 5.10012 6.5 4.00012C6.5 2.90012 7.4 2.00012 8.5 2.00012ZM8.5 12.0001C11.2 12.0001 14.3 13.2901 14.5 14.0001H2.5C2.73 13.2801 5.81 12.0001 8.5 12.0001ZM8.5 0.00012207C6.29 0.00012207 4.5 1.79012 4.5 4.00012C4.5 6.21012 6.29 8.00012 8.5 8.00012C10.71 8.00012 12.5 6.21012 12.5 4.00012C12.5 1.79012 10.71 0.00012207 8.5 0.00012207ZM8.5 10.0001C5.83 10.0001 0.5 11.3401 0.5 14.0001V16.0001H16.5V14.0001C16.5 11.3401 11.17 10.0001 8.5 10.0001Z" fill="#C6C4C4"/>
</svg>
